HIERARCHY
ROOT Hips
{
    OFFSET 0.000000 0.000000 0.000000
    CHANNELS 6 Xposition Yposition Zposition Zrotation Xrotation Yrotation
    JOINT Spine
    {
        OFFSET -0.000000 14.517291 0.000000
        CHANNELS 3 Zrotation Xrotation Yrotation
        JOINT Spine1
        {
            OFFSET -0.000000 37.558300 0.000000
            CHANNELS 3 Zrotation Xrotation Yrotation
            JOINT Neck
            {
                OFFSET -0.000000 37.404057 3.400369
                CHANNELS 3 Zrotation Xrotation Yrotation
                JOINT Head
                {
                    OFFSET -0.000000 24.785618 -3.540803
                    CHANNELS 3 Zrotation Xrotation Yrotation
                    End Site
                    {
                        OFFSET -0.000000 35.408028 0.000000
                    }
                }
            }
            JOINT LeftShoulder
            {
                OFFSET 6.992933 33.973492 -0.192664
                CHANNELS 3 Zrotation Xrotation Yrotation
                JOINT LeftArm
                {
                    OFFSET 21.527611 0.000000 0.000000
                    CHANNELS 3 Zrotation Xrotation Yrotation
                    JOINT LeftForeArm
                    {
                        OFFSET 56.353916 0.000000 0.000000
                        CHANNELS 3 Zrotation Xrotation Yrotation
                        JOINT LeftHand
                        {
                            OFFSET 47.774071 0.000000 0.000000
                            CHANNELS 3 Zrotation Xrotation Yrotation
                            End Site
                            {
                                OFFSET 26.556021 0.000000 0.000000
                            }
                        }
                    }
                }
            }
            JOINT RightShoulder
            {
                OFFSET -7.065357 33.973492 -0.192664
                CHANNELS 3 Zrotation Xrotation Yrotation
                JOINT RightArm
                {
                    OFFSET -21.527611 0.000000 0.000000
                    CHANNELS 3 Zrotation Xrotation Yrotation
                    JOINT RightForeArm
                    {
                        OFFSET -56.353916 0.000000 0.000000
                        CHANNELS 3 Zrotation Xrotation Yrotation
                        JOINT RightHand
                        {
                            OFFSET -47.774071 0.000000 0.000000
                            CHANNELS 3 Zrotation Xrotation Yrotation
                            End Site
                            {
                                OFFSET -26.556021 0.000000 0.000000
                            }
                        }
                    }
                }
            }
        }
    }
    JOINT LeftUpLeg
    {
        OFFSET 17.704014 0.000000 0.000000
        CHANNELS 3 Zrotation Xrotation Yrotation
        JOINT LeftLeg
        {
            OFFSET -0.000000 -81.181816 0.000000
            CHANNELS 3 Zrotation Xrotation Yrotation
            JOINT LeftFoot
            {
                OFFSET -0.000000 -62.821102 0.000000
                CHANNELS 3 Zrotation Xrotation Yrotation
                JOINT LeftToeBase
                {
                    OFFSET -0.000000 -11.507608 26.556021
                    CHANNELS 3 Zrotation Xrotation Yrotation
                    End Site
                    {
                        OFFSET -0.000000 0.000000 7.081605
                    }
                }
            }
        }
    }
    JOINT RightUpLeg
    {
        OFFSET -17.704014 0.000000 0.000000
        CHANNELS 3 Zrotation Xrotation Yrotation
        JOINT RightLeg
        {
            OFFSET -0.000000 -81.181816 0.000000
            CHANNELS 3 Zrotation Xrotation Yrotation
            JOINT RightFoot
            {
                OFFSET -0.000000 -62.821102 0.000000
                CHANNELS 3 Zrotation Xrotation Yrotation
                JOINT RightToeBase
                {
                    OFFSET -0.000000 -11.507608 26.556021
                    CHANNELS 3 Zrotation Xrotation Yrotation
                    End Site
                    {
                        OFFSET -0.000000 0.000000 7.081605
                    }
                }
            }
        }
    }
}
MOTION
Frames:    9
Frame Time:    0.008333
-1.648904    157.127686    -23.775431    -0.927904    -2.864297    -35.814552    4.103281    0.030526    2.345601    -1.247058    1.213291    0.794886    14.851551    2.151490    13.238726    -8.282759    3.622696    10.941454    -1.012353    9.636923    -11.382833    -39.271927    12.321014    -37.237041    41.879780    -47.251644    -42.230007    -18.384241    -30.871326    -25.556026    -6.506420    3.239564    0.596596    41.041115    0.488043    80.586723    4.770279    -21.864250    92.485786    12.240014    -24.197611    22.580397    16.655476    -15.231837    6.875560    -12.644471    19.704195    1.053966    -4.746145    -0.770688    33.259884    0.000000    0.000000    0.000000    -11.852957    1.097308    -6.431064    5.909266    28.076147    -0.359142    3.691751    -22.092566    -14.057909    0.000000    0.000000    0.000000    
-1.627400    157.133286    -23.782236    -0.902994    -2.850964    -35.866112    4.108944    0.020858    2.355047    -1.250489    1.212890    0.797927    14.835821    2.148643    13.249528    -8.270496    3.634478    10.956650    -1.017006    9.642667    -11.380654    -39.260212    12.333787    -37.232285    41.958591    -47.270855    -42.139973    -18.405088    -30.894440    -25.564131    -6.505519    3.272808    0.589128    40.955662    0.668586    80.569725    4.880607    -21.630972    92.296196    12.165041    -24.080189    22.503847    16.642710    -15.233399    6.914446    -12.628343    19.679005    1.077046    -4.748439    -0.756705    33.250561    0.000000    0.000000    0.000000    -11.868400    1.028688    -6.421311    5.878047    28.119673    -0.316397    3.704473    -22.086941    -14.059241    0.000000    0.000000    0.000000    
-1.606419    157.137939    -23.787640    -0.880761    -2.840438    -35.922695    4.120345    0.012677    2.362025    -1.265940    1.215776    0.800377    14.826258    2.153028    13.255941    -8.257174    3.636226    10.966770    -1.016873    9.638234    -11.370156    -39.258572    12.327384    -37.221420    42.000679    -47.267490    -42.079025    -18.406868    -30.897306    -25.562757    -6.495856    3.300250    0.583672    40.900784    0.845560    80.560402    5.030665    -21.362083    92.103012    12.058847    -23.970823    22.424513    16.628511    -15.226261    6.949596    -12.609001    19.649660    1.076693    -4.773963    -0.759333    33.279064    0.000000    0.000000    0.000000    -11.890620    0.967367    -6.362536    5.891232    28.147116    -0.336306    3.711339    -22.073906    -14.059126    0.000000    0.000000    0.000000    
-1.587630    157.141251    -23.793468    -0.854512    -2.837981    -35.983101    4.112010    0.010623    2.371730    -1.261757    1.209880    0.803501    14.790253    2.152787    13.257217    -8.213798    3.654024    10.978844    -1.025673    9.635383    -11.372180    -39.253433    12.324545    -37.198185    42.059196    -47.265087    -42.000431    -18.399008    -30.901175    -25.579342    -6.505636    3.334317    0.583831    40.887058    0.998477    80.541779    5.242481    -21.064013    91.948906    11.903759    -23.902245    22.354156    16.609840    -15.216153    6.978287    -12.602784    19.622253    1.080433    -4.766652    -0.749848    33.312267    0.000000    0.000000    0.000000    -11.921750    0.908237    -6.293445    5.911442    28.176758    -0.342257    3.695888    -22.067289    -14.080676    0.000000    0.000000    0.000000    
-1.564561    157.142807    -23.799450    -0.833381    -2.831000    -36.048588    4.124029    0.014597    2.376129    -1.279309    1.200197    0.805041    14.768872    2.161796    13.267047    -8.187439    3.656348    10.996185    -1.021517    9.626356    -11.357532    -39.275723    12.283729    -37.178951    42.043423    -47.250523    -41.985741    -18.367304    -30.906464    -25.541191    -6.509449    3.371714    0.591549    40.852047    1.154928    80.528801    5.425624    -20.786661    91.755386    11.827310    -23.804632    22.322876    16.598530    -15.212552    7.010797    -12.592292    19.609537    1.091591    -4.768155    -0.751776    33.334911    0.000000    0.000000    0.000000    -11.948101    0.842519    -6.229680    5.922138    28.221159    -0.348496    3.702422    -22.067755    -14.077903    0.000000    0.000000    0.000000    
-1.545154    157.144714    -23.802679    -0.816160    -2.825930    -36.116638    4.134132    0.005960    2.385737    -1.285597    1.214002    0.808414    14.746161    2.165497    13.272120    -8.175625    3.658738    11.006437    -1.032059    9.622044    -11.352855    -39.268684    12.256379    -37.163429    42.073967    -47.245594    -41.913635    -18.384195    -30.908676    -25.570189    -6.524215    3.389988    0.590043    40.792950    1.346375    80.518913    5.579663    -20.570049    91.577568    11.687126    -23.764496    22.155115    16.588093    -15.200575    7.025526    -12.586272    19.591057    1.126246    -4.760348    -0.753548    33.348381    0.000000    0.000000    0.000000    -11.972580    0.783347    -6.174681    5.929484    28.258821    -0.351943    3.712396    -22.062634    -14.067824    0.000000    0.000000    0.000000    
-1.522421    157.146072    -23.805197    -0.790644    -2.823346    -36.189232    4.131476    0.005547    2.395106    -1.289757    1.212518    0.811536    14.717378    2.169109    13.270072    -8.147592    3.657559    11.011534    -1.030211    9.613231    -11.352650    -39.296028    12.218171    -37.132622    42.095810    -47.232864    -41.868771    -18.372396    -30.904224    -25.567600    -6.538577    3.413502    0.578341    40.724323    1.556390    80.513527    5.747203    -20.374588    91.414101    11.602516    -23.739311    22.076805    16.568611    -15.189853    7.059396    -12.573606    19.572523    1.141729    -4.757335    -0.748001    33.369884    0.000000    0.000000    0.000000    -12.009367    0.720989    -6.124505    5.939624    28.296247    -0.354304    3.723593    -22.063435    -14.051451    0.000000    0.000000    0.000000    
-1.501900    157.149536    -23.807016    -0.773647    -2.823275    -36.265423    4.144454    0.005642    2.403161    -1.310654    1.216165    0.814443    14.679339    2.188653    13.268886    -8.102297    3.635228    11.021265    -1.027096    9.616196    -11.353542    -39.310593    12.168854    -37.106426    42.133038    -47.222488    -41.797951    -18.409193    -30.891899    -25.601246    -6.541420    3.448250    0.574652    40.684589    1.723998    80.517540    5.962932    -20.125214    91.228981    11.507432    -23.705431    22.005262    16.560987    -15.171721    7.061090    -12.582937    19.548908    1.195416    -4.747478    -0.746287    33.387348    0.000000    0.000000    0.000000    -12.037435    0.665884    -6.076075    5.938497    28.329239    -0.344770    3.727548    -22.051434    -14.026008    0.000000    0.000000    0.000000    
-1.480539    157.149246    -23.808542    -0.750369    -2.822770    -36.336235    4.140476    0.003534    2.404579    -1.309852    1.218420    0.814942    14.653793    2.201917    13.273928    -8.089087    3.628670    11.032630    -1.033715    9.614014    -11.342569    -39.329689    12.120983    -37.082275    42.148037    -47.203747    -41.750847    -18.432909    -30.873642    -25.617043    -6.551795    3.483998    0.566567    40.638451    1.912897    80.527634    6.139420    -19.898756    91.039925    11.435464    -23.652275    21.925142    16.544947    -15.166431    7.079079    -12.578745    19.548258    1.227574    -4.748346    -0.759250    33.404488    0.000000    0.000000    0.000000    -12.073819    0.609184    -6.036977    5.954918    28.360374    -0.350105    3.705761    -22.049479    -14.021733    0.000000    0.000000    0.000000    
